{"title":"Outcasts.S01E01.720p.HDTV.x264-fov.mkv","uid":6277130,"size":1565713445,"categoryP":"video","categoryS":"hd___tv_shows","magnet":"?xt=urn:btih:6633bcc385b8592dc5bee51f953ed9b7faf23d69&amp;dn=Outcasts.S01E01.720p.HDTV.x264-fov.mkv&amp;tr=udp%3A%2F%2Ftracker.openbittorrent.com%3A80&amp;tr=udp%3A%2F%2Fopen.demonii.com%3A1337&amp;tr=udp%3A%2F%2Ftracker.coppersurfer.tk%3A6969&amp;tr=udp%3A%2F%2Fexodus.desync.com%3A6969","seeders":0,"leechers":1,"uploader":"nac30","files":1,"time":1301302976,"description":"General\nComplete name                    : Outcasts.S01E01.720p.HDTV.x264-fov.mkv\nFormat                           : Matroska\nFile size                        : 1.46 GiB\nDuration                         : 59mn 14s\nOverall bit rate                 : 3 523 Kbps\nEncoded date                     : UTC 2011-02-07 22:19:51\nWriting application              : mkvmerge v2.9.8 ('C'est le bon') built on Aug 13 2009 16:16:13\nWriting library                  : libebml v0.7.7 + libmatroska v0.8.1\n\nVideo\nID                               : 1\nFormat                           : AVC\nFormat/Info                      : Advanced Video Codec\nFormat profile                   : &lt;a class=&quot;__cf_email__&quot; href=&quot;/cdn-cgi/l/email-protection&quot; data-cfemail=&quot;f5bd9c929db5b9c6dbc4&quot;&gt;[email&amp;#160;protected]&lt;/a&gt;&lt;script cf-hash='f9e31' type=&quot;text/javascript&quot;&gt;\n/* &lt;![CDATA[ */!function(){try{var t=&quot;currentScript&quot;in document?document.currentScript:function(){for(var t=document.getElementsByTagName(&quot;script&quot;),e=t.length;e--;)if(t[e].getAttribute(&quot;cf-hash&quot;))return t[e]}();if(t&amp;&amp;t.previousSibling){var e,r,n,i,c=t.previousSibling,a=c.getAttribute(&quot;data-cfemail&quot;);if(a){for(e=&quot;&quot;,r=parseInt(a.substr(0,2),16),n=2;a.length-n;n+=2)i=parseInt(a.substr(n,2),16)^r,e+=String.fromCharCode(i);e=document.createTextNode(e),c.parentNode.replaceChild(e,c)}}}catch(u){}}();/* ]]&gt; */&lt;/script&gt;\nFormat settings, CABAC           : Yes\nFormat settings, ReFrames        : 4 frames\nCodec ID                         : V_MPEG4/ISO/AVC\nDuration                         : 59mn 14s\nBit rate                         : 3 328 Kbps\nWidth                            : 1 280 pixels\nHeight                           : 720 pixels\nDisplay aspect ratio             : 16:9\nFrame rate                       : 25.000 fps\nColor space                      : YUV\nChroma subsampling               : 4:2:0\nBit depth                        : 8 bits\nScan type                        : Progressive\nBits/(Pixel*Frame)               : 0.144\nStream size                      : 1.35 GiB (93%)\nWriting library                  : x264 core 105 r1732 2b04482\n\nAudio\nID                               : 2\nFormat                           : AC-3\nFormat/Info                      : Audio Coding 3\nMode extension                   : CM (complete main)\nCodec ID                         : A_AC3\nDuration                         : 59mn 14s\nBit rate mode                    : Constant\nBit rate                         : 192 Kbps\nChannel(s)                       : 2 channels\nChannel positions                : Front: L R\nSampling rate                    : 48.0 KHz\nBit depth                        : 16 bits\nCompression mode                 : Lossy\nStream size                      : 81.4 MiB (5%)\n","torrent":{"xt":"urn:btih:6633bcc385b8592dc5bee51f953ed9b7faf23d69","amp;dn":"Outcasts.S01E01.720p.HDTV.x264-fov.mkv","amp;tr":["udp%3A%2F%2Ftracker.openbittorrent.com%3A80","udp%3A%2F%2Fopen.demonii.com%3A1337","udp%3A%2F%2Ftracker.coppersurfer.tk%3A6969","udp%3A%2F%2Fexodus.desync.com%3A6969"],"infoHash":"6633bcc385b8592dc5bee51f953ed9b7faf23d69","infoHashBuffer":{"type":"Buffer","data":[102,51,188,195,133,184,89,45,197,190,229,31,149,62,217,183,250,242,61,105]},"announce":[],"urlList":[]}}